<?xml version="1.0" encoding="UTF-8" standalone="no"?><!DOCTYPE svg PUBLIC "-//W3C//DTD SVG 1.1//EN" "http://www.w3.org/Graphics/SVG/1.1/DTD/svg11.dtd"><svg width="100%" height="100%" viewBox="0 0 599 136" version="1.1" xmlns="http://www.w3.org/2000/svg" xmlns:xlink="http://www.w3.org/1999/xlink" xml:space="preserve" xmlns:serif="http://www.serif.com/" style="fill-rule:evenodd;clip-rule:evenodd;stroke-linejoin:round;stroke-miterlimit:2;"><g id="Layer-1" serif:id="Layer 1"><path d="M89.262,48.534c-18.679,-19.519 -43.013,-30.981 -69.472,-34.703c-0.85,-0.122 -1.707,-0.256 -2.566,-0.353c2.084,27.556 12.525,53.359 31.791,73.506c18.672,19.528 43.015,30.981 69.472,34.694c0.856,0.125 1.709,0.259 2.565,0.362c-2.087,-27.562 -12.525,-53.359 -31.79,-73.506" style="fill:#459343;fill-rule:nonzero;"/><path d="M232.883,82.216c0,10.01 -7.675,15.016 -22.94,15.016l-36.4,0c-3.541,0 -5.431,-1.825 -5.431,-5.7c-0,-3.709 1.89,-5.522 5.431,-5.522l37.515,0c5.866,0 8.885,-1.725 8.885,-4.828l-0,-3.453c-0,-3.628 -3.631,-5.528 -11.031,-5.528l-16.654,-0c-15.862,-0 -23.715,-4.65 -23.715,-13.791l-0,-5.603c-0,-10.175 6.981,-15.262 21.128,-15.262l9.059,-0c3.707,-0 5.428,1.89 5.428,5.681c0,3.625 -1.721,5.525 -5.428,5.525l-10.44,-0c-4.653,-0 -6.988,1.64 -6.988,5.181l0,2.497c0,3.191 3.11,4.656 9.572,4.656l16.903,0c16.741,0 25.106,5.091 25.106,15.35l0,5.781Z" style="fill:#fff;fill-rule:nonzero;"/><path d="M294.253,74.102l-32.782,-0c-4.565,-0 -6.893,1.309 -6.893,3.803l-0,4.653c-0,2.509 2.5,3.716 7.331,3.716l25.272,-0c4.653,-0 7.072,-1.988 7.072,-5.957l-0,-6.215Zm11.818,8.54c0,9.753 -6.653,14.588 -20.272,14.588l-22.337,-0c-14.15,-0 -21.131,-4.75 -21.131,-14.238l-0,-5.347c-0,-8.54 6.812,-12.846 20.7,-12.846l30.962,-0c-0.69,-2.666 -2.847,-3.982 -6.297,-3.982l-9.918,0c-3.45,0 -5.085,-1.722 -5.085,-5.168c0,-3.363 1.635,-5.166 5.085,-5.166l8.021,-0c13.619,-0 20.272,4.994 20.272,15.006l0,17.153Z" style="fill:#fff;fill-rule:nonzero;"/><path d="M332.157,61.516l-0,30.278c-0,3.881 -2.069,5.863 -6.128,5.863c-3.966,-0 -5.944,-1.982 -5.944,-5.863l0,-30.278l-1.472,0c-3.881,0 -5.781,-1.812 -5.781,-5.516c-0,-3.715 1.9,-5.518 5.781,-5.518l1.472,-0l0,-7.516c0,-3.881 2.063,-5.859 6.116,-5.859c3.887,-0 5.956,1.978 5.956,5.859l-0,7.516l13.019,-0c3.618,-0 5.615,1.803 5.615,5.518c0,3.704 -1.997,5.516 -5.615,5.516l-13.019,0Z" style="fill:#fff;fill-rule:nonzero;"/><path d="M371.598,71.346l27.165,0l-13.365,-21.128l-13.8,21.128Zm33.459,10.872l-39.665,-0l-8.454,12.684c-1.125,1.807 -3.284,2.675 -5.012,2.675c-3.016,0 -6.641,-2.853 -6.641,-6.043c0,-1.119 0.257,-2.154 1.122,-3.285l31.66,-47.269c1.812,-2.662 4.571,-3.968 7.331,-3.968c2.503,-0 5.262,1.306 7.069,3.968l31.743,47.269c0.775,1.047 1.116,2.085 1.116,3.285c-0,3.368 -3.447,5.943 -6.541,5.943c-2.075,0 -3.89,-0.768 -5.09,-2.753l-8.638,-12.506Z" style="fill:#fff;fill-rule:nonzero;"/><path d="M478.507,66.089c0,-3.106 -3.362,-4.572 -9.919,-4.572l-17.156,0c-6.134,0 -9.062,1.385 -9.062,3.972l-0,13.71c-0,2.762 3.537,4.137 10.784,4.137l25.353,0l0,-17.247Zm12.416,28.291c-0,9.919 -7.844,15.003 -23.288,15.003l-6.115,-0c-3.888,-0 -5.694,-1.988 -5.694,-5.519c-0,-3.794 1.806,-5.603 5.694,-5.603l7.253,0c6.547,0 9.734,-0.953 9.734,-2.756l0,-1.731l-23.719,-0c-16.471,-0 -24.584,-4.825 -24.584,-14.404l0,-13.715c0,-10.178 7.422,-15.172 22.516,-15.172l13.709,-0c16.309,-0 24.494,4.994 24.494,15.172l-0,28.725Z" style="fill:#fff;fill-rule:nonzero;"/><path d="M522.794,61.516c-5.694,0 -8.459,1.384 -8.459,4.05l-0,26.228c-0,3.881 -2.063,5.863 -6.213,5.863c-4.134,-0 -6.203,-1.982 -6.203,-5.863l0,-26.228c0,-10.091 7.253,-15.084 21.644,-15.084l3.719,-0c3.356,-0 5.168,1.803 5.168,5.518c0,3.704 -1.722,5.516 -4.828,5.516l-4.828,0Z" style="fill:#fff;fill-rule:nonzero;"/><path d="M585.526,65.488c0,-2.588 -2.759,-3.972 -8.447,-3.972l-17.437,0c-6.203,0 -9.394,1.466 -9.394,4.572l0,15.781c0,3.025 3.191,4.403 9.394,4.403l17.516,0c5.609,0 8.368,-1.378 8.368,-4.403l0,-16.381Zm12.507,16.556c-0,10.088 -7.338,15.188 -22.004,15.188l-15.515,-0c-15.1,-0 -22.522,-5.1 -22.522,-15.188l-0,-16.04c-0,-10.354 7.606,-15.529 22.869,-15.529l15.168,0c14.666,0 22.004,5.175 22.004,15.447l-0,16.122Z" style="fill:#fff;fill-rule:nonzero;"/><path d="M94.537,100.24c-23.541,-17.681 -39.379,-38.241 -46.657,-54.897c7.435,21.237 23.741,41.719 50.841,62.081c19.494,14.638 39.353,24.51 55.484,28.541c-0.193,-2.222 -0.184,-4.45 0.063,-6.672c-16.581,-3.569 -39.163,-13.603 -59.731,-29.053" style="fill:#25673f;fill-rule:nonzero;"/><path d="M72.283,24.463c0,0 1.006,-0.772 2.894,-2.218c1.878,-1.457 4.669,-3.557 8.356,-6.05c3.678,-2.5 8.256,-5.391 13.744,-8.332c5.5,-2.881 11.969,-5.897 19.7,-7.35c3.85,-0.659 8.137,-0.868 12.441,0.513c2.078,0.819 4.209,1.947 5.837,3.631c1.731,1.756 2.888,4.075 3.438,6.403c1.112,4.738 0.418,9.563 -0.769,14.135c-1.219,4.6 -3.106,9.037 -5.3,13.359c-4.406,8.644 -10.041,16.9 -16.31,24.803c-6.284,7.897 -13.218,15.456 -20.6,22.547c-14.89,14.019 -31.412,26.403 -48.606,35.178c-8.597,4.322 -17.459,7.781 -26.522,8.75c-4.487,0.425 -9.218,0.2 -13.297,-2.009c-1.034,-0.569 -1.881,-1.169 -2.818,-2.082c-0.678,-0.762 -1.385,-1.365 -1.994,-2.45c-1.366,-1.94 -1.859,-3.971 -2.25,-6c-0.606,-4.075 0.091,-7.89 1.05,-11.296c0.953,-3.438 2.334,-6.494 3.672,-9.313c2.778,-5.606 5.762,-10.141 8.328,-13.775c2.541,-3.656 4.744,-6.372 6.253,-8.209c1.513,-1.838 2.319,-2.819 2.319,-2.819c-0,-0 -0.738,1.034 -2.116,2.972c-1.39,1.922 -3.337,4.819 -5.697,8.559c-2.356,3.735 -5.075,8.388 -7.503,13.997c-1.159,2.822 -2.347,5.856 -3.069,9.153c-0.753,3.263 -1.293,6.825 -0.634,10.288c0.359,1.665 0.925,3.487 1.909,4.759c0.329,0.684 1.157,1.406 1.844,2.119c0.519,0.469 1.344,1.062 2.128,1.434c3.244,1.65 7.388,1.813 11.488,1.275c8.303,-1.147 16.744,-4.759 25.059,-8.972c8.316,-4.318 16.494,-9.625 24.416,-15.531c7.937,-5.916 15.547,-12.441 22.809,-19.416c7.319,-6.884 14.2,-14.234 20.428,-21.89c6.21,-7.663 11.782,-15.666 16.1,-23.925c2.172,-4.119 3.925,-8.341 5.228,-12.541c1.247,-4.187 1.922,-8.509 1.138,-12.331c-0.4,-1.916 -1.194,-3.588 -2.384,-4.909c-1.285,-1.425 -2.9,-2.307 -4.588,-3.069c-3.512,-1.256 -7.4,-1.256 -11.019,-0.741c-7.281,1.181 -13.784,3.76 -19.337,6.31c-5.55,2.612 -10.244,5.246 -14.028,7.54c-3.769,2.313 -6.732,4.15 -8.697,5.488c-1.985,1.315 -3.041,2.015 -3.041,2.015" style="fill:#fff;fill-rule:nonzero;"/></g></svg>